<svg xmlns="http://www.w3.org/2000/svg" xmlns:xlink="http://www.w3.org/1999/xlink" preserveAspectRatio="xMidYMid" width="131" height="91" viewBox="0 0 131 91">
  <defs>
    <style>
      .cls-1, .cls-2 {
        font-size: 18px;
      }

      .cls-2, .cls-3 {
        fill: #737373;
      }

      .cls-2 {
        text-anchor: middle;
        font-family: "Novecentowide-DemiBold";
        font-weight: bold;
      }

      .cls-3 {
        fill-rule: evenodd;
      }
    </style>
  </defs>
  <g>
    <text x="66" y="90" class="cls-1"><tspan class="cls-2">Applications</tspan></text>
    <path d="M85.428,43.000 L42.571,43.000 C40.598,43.000 38.999,41.395 38.999,39.416 L38.999,3.583 C38.999,1.604 40.598,-0.000 42.571,-0.000 L85.428,-0.000 C87.400,-0.000 88.999,1.604 88.999,3.583 L88.999,39.416 C88.999,41.395 87.400,43.000 85.428,43.000 ZM45.249,2.687 C44.263,2.687 43.464,3.489 43.464,4.479 C43.464,5.468 44.263,6.271 45.249,6.271 C46.235,6.271 47.035,5.468 47.035,4.479 C47.035,3.489 46.235,2.687 45.249,2.687 ZM50.606,2.687 C49.620,2.687 48.821,3.489 48.821,4.479 C48.821,5.468 49.620,6.271 50.606,6.271 C51.593,6.271 52.392,5.468 52.392,4.479 C52.392,3.489 51.593,2.687 50.606,2.687 ZM56.075,2.687 C55.089,2.687 54.289,3.489 54.289,4.479 C54.289,5.468 55.089,6.271 56.075,6.271 C57.061,6.271 57.861,5.468 57.861,4.479 C57.861,3.489 57.061,2.687 56.075,2.687 ZM85.000,3.000 L60.000,3.000 L60.000,6.000 L85.000,6.000 L85.000,3.000 ZM85.000,9.000 L43.000,9.000 L43.000,39.000 L85.000,39.000 L85.000,9.000 Z" class="cls-3"/>
  </g>
</svg>
