<svg xmlns="http://www.w3.org/2000/svg" xmlns:xlink="http://www.w3.org/1999/xlink" preserveAspectRatio="xMidYMid" width="652.375" height="399.219" viewBox="0 0 652.375 399.219">
  <defs>
    <style>
      .cls-1 {
        fill: #e5e5e5;
      }

      .cls-1, .cls-2, .cls-3, .cls-4, .cls-5 {
        fill-rule: evenodd;
      }

      .cls-2 {
        fill: #757a7a;
      }

      .cls-3 {
        fill: #464c52;
      }

      .cls-4 {
        fill: #00bbf5;
      }

      .cls-5 {
        fill: #fff;
        opacity: 0.15;
      }

      .cls-6 {
        fill: #e6ecee;
      }
    </style>
  </defs>
  <g>
    <path d="M0.000,331.510 L652.371,331.510 L652.371,357.189 C652.371,363.635 647.155,368.861 640.722,368.861 L11.650,368.861 C5.216,368.861 0.000,363.635 0.000,357.189 L0.000,331.510 Z" class="cls-1"/>
    <path d="M372.784,331.510 C372.784,337.956 367.568,343.182 361.134,343.182 L291.237,343.182 C284.803,343.182 279.588,337.956 279.588,331.510 C279.588,331.483 372.784,331.440 372.784,331.510 Z" class="cls-2"/>
    <path d="M69.897,0.013 L582.474,0.013 C588.908,0.013 594.124,5.239 594.124,11.685 L594.124,331.510 L58.247,331.510 L58.247,11.685 C58.247,5.239 63.463,0.013 69.897,0.013 Z" class="cls-3"/>
    <path d="M86.206,28.027 L566.165,28.027 L566.165,303.496 L86.206,303.496 L86.206,28.027 Z" class="cls-4"/>
    <path d="M312.206,-30.335 L615.093,-23.332 L603.443,350.185 L421.711,354.854 L312.206,-30.335 Z" class="cls-5"/>
    <circle cx="326.188" cy="44.359" r="4.657" class="cls-6"/>
  </g>
</svg>
