<svg xmlns="http://www.w3.org/2000/svg" xmlns:xlink="http://www.w3.org/1999/xlink" preserveAspectRatio="xMidYMid" width="300" height="220" viewBox="0 0 300 220">
  <defs>
    <style>
      .cls-1, .cls-3 {
        fill: #fff;
      }

      .cls-1 {
        opacity: 0.5;
      }

      .cls-2 {
        fill: #2ecc71;
      }

      .cls-3 {
        fill-rule: evenodd;
      }
    </style>
  </defs>
  <g>
    <rect width="300" height="220" class="cls-1"/>
    <g>
      <circle cx="150.5" cy="109.5" r="48.5" class="cls-2"/>
      <path d="M165.546,100.358 L159.527,110.830 C158.577,112.483 156.473,113.049 154.828,112.095 L153.338,111.231 L155.058,108.239 L155.058,108.239 C155.881,108.716 156.933,108.433 157.408,107.607 L161.707,100.126 C162.182,99.300 161.900,98.244 161.078,97.767 L155.120,94.312 C154.297,93.835 153.246,94.118 152.771,94.944 L148.471,102.424 C147.996,103.250 148.278,104.307 149.100,104.784 L147.381,107.776 L145.891,106.912 C144.246,105.958 143.682,103.845 144.632,102.193 L150.652,91.720 C151.602,90.068 153.705,89.502 155.351,90.456 L164.287,95.638 C165.932,96.592 166.496,98.705 165.546,100.358 ZM145.200,118.480 C144.377,118.003 144.096,116.946 144.571,116.120 L151.450,104.152 C151.925,103.326 152.977,103.043 153.799,103.519 C154.622,103.996 154.904,105.053 154.429,105.879 L147.549,117.848 C147.074,118.674 146.023,118.957 145.200,118.480 ZM143.941,113.760 L143.941,113.760 C143.118,113.283 142.067,113.567 141.592,114.393 L137.292,121.873 C136.817,122.699 137.099,123.756 137.921,124.233 L143.879,127.688 C144.702,128.165 145.754,127.882 146.228,127.056 L150.528,119.575 C151.003,118.749 150.721,117.692 149.899,117.216 L149.899,117.216 L151.619,114.223 L153.108,115.087 C154.753,116.041 155.317,118.154 154.367,119.807 L148.348,130.279 C147.398,131.932 145.294,132.498 143.649,131.544 L134.712,126.361 C133.067,125.407 132.503,123.294 133.453,121.642 L139.473,111.169 C140.422,109.517 142.526,108.950 144.171,109.905 L145.661,110.768 L143.941,113.760 Z" class="cls-3"/>
    </g>
  </g>
</svg>
