<svg xmlns="http://www.w3.org/2000/svg" xmlns:xlink="http://www.w3.org/1999/xlink" preserveAspectRatio="xMidYMid" width="139" height="86" viewBox="0 0 139 86">
  <defs>
    <style>
      .cls-1, .cls-2 {
        font-size: 18px;
      }

      .cls-2, .cls-3 {
        fill: #423e3e;
      }

      .cls-2 {
        font-family: "Novecentowide-DemiBold";
        font-weight: bold;
      }

      .cls-3 {
        fill-rule: evenodd;
      }
    </style>
  </defs>
  <g>
    <text x="-1" y="85" class="cls-1"><tspan class="cls-2">Photography</tspan></text>
    <path d="M91.551,42.000 L48.448,42.000 C46.543,42.000 44.999,40.433 44.999,38.500 L44.999,8.750 C44.999,6.817 46.543,5.250 48.448,5.250 L51.896,5.250 L51.896,-0.000 L65.689,0.109 L65.683,5.280 L91.551,5.250 C93.455,5.250 94.999,6.817 94.999,8.750 L94.999,38.500 C94.999,40.433 93.455,42.000 91.551,42.000 ZM62.241,3.500 L55.344,3.500 L55.344,8.750 L62.241,8.750 L62.241,3.500 ZM63.965,12.177 C57.299,12.177 51.896,17.661 51.896,24.427 C51.896,31.192 57.299,36.677 63.965,36.677 C70.630,36.677 76.034,31.192 76.034,24.427 C76.034,17.661 70.630,12.177 63.965,12.177 ZM87.241,9.661 C85.336,9.661 83.792,11.228 83.792,13.161 C83.792,15.094 85.336,16.661 87.241,16.661 C89.145,16.661 90.689,15.094 90.689,13.161 C90.689,11.228 89.145,9.661 87.241,9.661 ZM63.966,32.593 C59.681,32.593 56.207,29.068 56.207,24.719 C56.207,20.369 59.681,16.844 63.966,16.844 C68.250,16.844 71.724,20.369 71.724,24.719 C71.724,29.068 68.250,32.593 63.966,32.593 Z" class="cls-3"/>
  </g>
</svg>
