<svg xmlns="http://www.w3.org/2000/svg" xmlns:xlink="http://www.w3.org/1999/xlink" preserveAspectRatio="xMidYMid" width="91" height="97" viewBox="0 0 91 97">
  <defs>
    <style>
      .cls-1, .cls-2 {
        font-size: 18px;
      }

      .cls-2, .cls-3 {
        fill: #737373;
      }

      .cls-2 {
        text-anchor: middle;
        font-family: "Novecentowide-DemiBold";
        font-weight: bold;
      }

      .cls-3 {
        fill-rule: evenodd;
      }
    </style>
  </defs>
  <g>
    <text x="46" y="96" class="cls-1"><tspan class="cls-2">Websites</tspan></text>
    <path d="M69.438,50.267 L68.407,50.267 C68.239,50.873 67.998,51.448 67.691,51.981 L68.644,52.934 C69.254,53.544 69.254,54.532 68.644,55.142 L68.092,55.694 C67.482,56.304 66.493,56.304 65.883,55.694 L64.923,54.735 C64.391,55.038 63.818,55.274 63.214,55.439 L63.214,56.439 C63.214,57.301 62.514,58.000 61.652,58.000 L60.870,58.000 C60.008,58.000 59.308,57.301 59.308,56.439 L59.308,55.439 C58.704,55.274 58.131,55.038 57.598,54.735 L56.639,55.694 C56.029,56.304 55.040,56.304 54.430,55.694 L53.878,55.142 C53.268,54.532 53.268,53.544 53.878,52.934 L54.831,51.981 C54.524,51.448 54.283,50.873 54.115,50.267 L53.084,50.267 C52.221,50.267 51.522,49.568 51.522,48.705 L51.522,47.925 C51.522,47.063 52.221,46.364 53.084,46.364 L54.103,46.364 C54.264,45.763 54.495,45.191 54.794,44.661 L53.878,43.745 C53.268,43.135 53.268,42.146 53.878,41.537 L54.430,40.985 C55.040,40.375 56.029,40.375 56.639,40.985 L57.538,41.883 C58.087,41.563 58.681,41.314 59.308,41.143 L59.308,40.094 C59.308,39.232 60.008,38.533 60.870,38.533 L61.652,38.533 C62.514,38.533 63.214,39.232 63.214,40.094 L63.214,41.143 C63.841,41.314 64.435,41.563 64.984,41.883 L65.883,40.985 C66.493,40.375 67.482,40.375 68.092,40.985 L68.644,41.537 C69.254,42.146 69.254,43.135 68.644,43.745 L67.728,44.661 C68.026,45.191 68.257,45.763 68.419,46.364 L69.438,46.364 C70.300,46.364 71.000,47.063 71.000,47.925 L71.000,48.705 C71.000,49.568 70.300,50.267 69.438,50.267 ZM61.261,44.046 C58.888,44.046 56.965,45.968 56.965,48.340 C56.965,50.711 58.888,52.633 61.261,52.633 C63.633,52.633 65.557,50.711 65.557,48.340 C65.557,45.968 63.633,44.046 61.261,44.046 ZM61.261,50.242 C60.182,50.242 59.308,49.369 59.308,48.291 C59.308,47.213 60.182,46.339 61.261,46.339 C62.339,46.339 63.214,47.213 63.214,48.291 C63.214,49.369 62.339,50.242 61.261,50.242 ZM57.940,24.193 L55.813,24.193 C55.468,25.444 54.971,26.629 54.338,27.729 L56.303,29.694 C57.561,30.951 57.561,32.989 56.303,34.246 L55.165,35.384 C53.907,36.642 51.867,36.642 50.610,35.384 L48.632,33.407 C47.534,34.032 46.352,34.518 45.106,34.857 L45.106,36.919 C45.106,38.697 43.664,40.138 41.885,40.138 L40.275,40.138 C38.496,40.138 37.054,38.697 37.054,36.919 L37.054,34.857 C35.808,34.518 34.626,34.032 33.529,33.407 L31.551,35.384 C30.293,36.642 28.254,36.642 26.996,35.384 L25.857,34.246 C24.599,32.989 24.599,30.951 25.857,29.694 L27.823,27.729 C27.189,26.629 26.693,25.444 26.347,24.193 L24.221,24.193 C22.442,24.193 21.000,22.752 21.000,20.974 L21.000,19.365 C21.000,17.587 22.442,16.146 24.221,16.146 L26.321,16.146 C26.654,14.907 27.131,13.728 27.747,12.635 L25.857,10.746 C24.599,9.489 24.599,7.451 25.857,6.193 L26.996,5.055 C28.254,3.798 30.293,3.798 31.551,5.055 L33.403,6.907 C34.537,6.248 35.760,5.734 37.054,5.382 L37.054,3.219 C37.054,1.441 38.496,-0.000 40.275,-0.000 L41.885,-0.000 C43.664,-0.000 45.106,1.441 45.106,3.219 L45.106,5.381 C46.400,5.734 47.624,6.248 48.757,6.907 L50.610,5.055 C51.867,3.798 53.907,3.798 55.165,5.055 L56.303,6.193 C57.561,7.451 57.561,9.489 56.303,10.746 L54.414,12.635 C55.030,13.728 55.506,14.907 55.839,16.146 L57.940,16.146 C59.718,16.146 61.161,17.587 61.161,19.365 L61.161,20.974 C61.161,22.752 59.718,24.193 57.940,24.193 ZM41.080,11.367 C36.188,11.367 32.223,15.331 32.223,20.220 C32.223,25.109 36.188,29.073 41.080,29.073 C45.972,29.073 49.938,25.109 49.938,20.220 C49.938,15.331 45.972,11.367 41.080,11.367 ZM41.080,24.143 C38.857,24.143 37.054,22.342 37.054,20.119 C37.054,17.897 38.857,16.095 41.080,16.095 C43.304,16.095 45.106,17.897 45.106,20.119 C45.106,22.342 43.304,24.143 41.080,24.143 Z" class="cls-3"/>
  </g>
</svg>
